<?xml version="1.0" encoding="utf-8"?>
<!-- Generator: Adobe Illustrator 21.1.0, SVG Export Plug-In . SVG Version: 6.00 Build 0)  -->
<svg version="1.1" id="Layer_2" xmlns="http://www.w3.org/2000/svg" xmlns:xlink="http://www.w3.org/1999/xlink" x="0px" y="0px"
	 viewBox="0 0 24 24" style="enable-background:new 0 0 24 24;" xml:space="preserve">
<style type="text/css">
	.st0{fill:#B3B3B3;}
</style>
<g>
	<path class="st0" d="M20,1H4C2.3,1,1,2.3,1,4v16c0,1.7,1.3,3,3,3h16c1.7,0,3-1.3,3-3V4C23,2.3,21.7,1,20,1z M21.2,20
		c0,0.7-0.5,1.2-1.2,1.2H4c-0.7,0-1.2-0.5-1.2-1.2V4c0-0.7,0.5-1.2,1.2-1.2h16c0.7,0,1.2,0.5,1.2,1.2V20z"/>
	<path class="st0" d="M16.8,10.6h-4.4V7c0-0.5-0.4-0.9-0.9-0.9S10.6,6.5,10.6,7v3.6H7c-0.5,0-0.9,0.4-0.9,0.9s0.4,0.9,0.9,0.9h3.6
		v4.4c0,0.5,0.4,0.9,0.9,0.9s0.9-0.4,0.9-0.9v-4.4h4.4c0.5,0,0.9-0.4,0.9-0.9S17.3,10.6,16.8,10.6z"/>
</g>
</svg>
