<?xml version="1.0" encoding="utf-8"?>
<!-- Generator: Adobe Illustrator 21.1.0, SVG Export Plug-In . SVG Version: 6.00 Build 0)  -->
<svg version="1.1" id="Layer_2" xmlns="http://www.w3.org/2000/svg" xmlns:xlink="http://www.w3.org/1999/xlink" x="0px" y="0px"
	 viewBox="0 0 24 24" style="enable-background:new 0 0 24 24;" xml:space="preserve">
<style type="text/css">
	.st0{fill:#B3B3B3;}
</style>
<path id="path-1_1_" class="st0" d="M12,10c1.7,0,3-1.3,3-3s-1.3-3-3-3S9,5.3,9,7S10.3,10,12,10z M12,12c-2.8,0-5-2.2-5-5s2.2-5,5-5
	s5,2.2,5,5S14.8,12,12,12z M5,21h14v-2.5c0-1.4-1.1-2.5-2.5-2.5h-9C6.1,16,5,17.1,5,18.5V21z M3,18.5C3,16,5,14,7.5,14h9
	c2.5,0,4.5,2,4.5,4.5V23H3V18.5z"/>
</svg>
