<?xml version="1.0" encoding="utf-8"?>
<!-- Generator: Adobe Illustrator 21.1.0, SVG Export Plug-In . SVG Version: 6.00 Build 0)  -->
<svg version="1.1" id="Layer_2" xmlns="http://www.w3.org/2000/svg" xmlns:xlink="http://www.w3.org/1999/xlink" x="0px" y="0px"
	 viewBox="0 0 17 17" style="enable-background:new 0 0 17 17;" xml:space="preserve">
<style type="text/css">
	.st0{fill:#B3B3B3;}
</style>
<path class="st0" d="M16.4,14.1l-3.5-3.5c0.6-1,0.9-2.1,0.9-3.4c0-3.7-3-6.7-6.7-6.7c-3.7,0-6.7,3-6.7,6.7c0,3.7,3,6.7,6.7,6.7
	c1.2,0,2.4-0.3,3.4-0.9l3.5,3.5L16.4,14.1z M2.2,7.2c0-2.8,2.2-5,5-5s5,2.2,5,5c0,2.8-2.2,5-5,5S2.2,9.9,2.2,7.2z"/>
</svg>
