<svg xmlns="http://www.w3.org/2000/svg" width="14" height="14" viewBox="0 0 14 14">
    <path fill="#AAA" fill-rule="evenodd" stroke="#AAA" stroke-width=".5" d="M1.628 6.336a4.712 4.712 0 0 1 4.707-4.708 4.712 4.712 0 0 1 4.708 4.708 4.712 4.712 0 0 1-4.708 4.708 4.712 4.712 0 0 1-4.707-4.708m8.69 3.54a5.306 5.306 0 0 0 1.352-3.54A5.342 5.342 0 0 0 6.335 1 5.342 5.342 0 0 0 1 6.336a5.342 5.342 0 0 0 5.335 5.336 5.31 5.31 0 0 0 3.538-1.353l2.59 2.59a.317.317 0 0 0 .444 0 .313.313 0 0 0 0-.444l-2.59-2.59z"/>
</svg>
