<?xml version="1.0" encoding="UTF-8"?>
<svg width="24px" height="24px" viewBox="0 0 24 24" version="1.1" xmlns="http://www.w3.org/2000/svg" xmlns:xlink="http://www.w3.org/1999/xlink">
    <!-- Generator: sketchtool 50.2 (55047) - http://www.bohemiancoding.com/sketch -->
    <title>A677F25C-0E59-4B75-8965-118020011EC3</title>
    <desc>Created with sketchtool.</desc>
    <defs>
        <path d="M11,17 C14.3137085,17 17,14.3137085 17,11 C17,7.6862915 14.3137085,5 11,5 C7.6862915,5 5,7.6862915 5,11 C5,14.3137085 7.6862915,17 11,17 Z M11,19 C6.581722,19 3,15.418278 3,11 C3,6.581722 6.581722,3 11,3 C15.418278,3 19,6.581722 19,11 C19,15.418278 15.418278,19 11,19 Z M20,18.5857864 L18.5857864,20 L20,20 L16.4644661,16.4644661 L16.4644661,17.8786797 L17.8786797,16.4644661 L16.4644661,16.4644661 L20,20 L20,18.5857864 Z M19.2928932,22.1213203 L14.3431458,17.1715729 L17.1715729,14.3431458 L22.1213203,19.2928932 L19.2928932,22.1213203 Z" id="path-1"></path>
    </defs>
    <g id="Symbols" stroke="none" stroke-width="1" fill="none" fill-rule="evenodd">
        <g id="ic_search">
            <mask id="mask-2" fill="white">
                <use xlink:href="#path-1"></use>
            </mask>
            <use id="Combined-Shape" fill="#000000" fill-rule="nonzero" xlink:href="#path-1"></use>
            <g id="color/purple" mask="url(#mask-2)" fill="#B965C1">
                <rect id="Rectangle-5" x="0" y="0" width="24" height="24"></rect>
            </g>
        </g>
    </g>
</svg>