<?xml version="1.0" encoding="UTF-8"?>
<svg width="24px" height="24px" viewBox="0 0 24 24" version="1.1" xmlns="http://www.w3.org/2000/svg" xmlns:xlink="http://www.w3.org/1999/xlink">
    <!-- Generator: sketchtool 50.2 (55047) - http://www.bohemiancoding.com/sketch -->
    <title>33434EC5-EEC3-413C-BFC9-38DEA4F952AF</title>
    <desc>Created with sketchtool.</desc>
    <defs>
        <path d="M4,2.8 C3.3372583,2.8 2.8,3.3372583 2.8,4 L2.8,20 C2.8,20.6627417 3.3372583,21.2 4,21.2 L20,21.2 C20.6627417,21.2 21.2,20.6627417 21.2,20 L21.2,4 C21.2,3.3372583 20.6627417,2.8 20,2.8 L4,2.8 Z M4,1 L20,1 C21.6568542,1 23,2.34314575 23,4 L23,20 C23,21.6568542 21.6568542,23 20,23 L4,23 C2.34314575,23 1,21.6568542 1,20 L1,4 C1,2.34314575 2.34314575,1 4,1 Z M10.6448718,7 C10.6448718,6.50294373 11.0478155,6.1 11.5448718,6.1 C12.0419281,6.1 12.4448718,6.50294373 12.4448718,7 L12.4448718,16.8076923 C12.4448718,17.3047486 12.0419281,17.7076923 11.5448718,17.7076923 C11.0478155,17.7076923 10.6448718,17.3047486 10.6448718,16.8076923 L10.6448718,7 Z M7,12.4448718 C6.50294373,12.4448718 6.1,12.0419281 6.1,11.5448718 C6.1,11.0478155 6.50294373,10.6448718 7,10.6448718 L16.8076923,10.6448718 C17.3047486,10.6448718 17.7076923,11.0478155 17.7076923,11.5448718 C17.7076923,12.0419281 17.3047486,12.4448718 16.8076923,12.4448718 L7,12.4448718 Z" id="path-1"></path>
    </defs>
    <g id="Symbols" stroke="none" stroke-width="1" fill="none" fill-rule="evenodd">
        <g id="ic_plus">
            <mask id="mask-2" fill="white">
                <use xlink:href="#path-1"></use>
            </mask>
            <use id="Combined-Shape" fill="#000000" fill-rule="nonzero" xlink:href="#path-1"></use>
            <g id="color/purple" mask="url(#mask-2)" fill="#B965C1">
                <rect id="Rectangle-5" x="0" y="0" width="24" height="24"></rect>
            </g>
        </g>
    </g>
</svg>