<?xml version="1.0" encoding="UTF-8"?>
<svg width="43px" height="42px" viewBox="0 0 43 42" version="1.1" xmlns="http://www.w3.org/2000/svg" xmlns:xlink="http://www.w3.org/1999/xlink">
    <!-- Generator: sketchtool 50.2 (55047) - http://www.bohemiancoding.com/sketch -->
    <title>44947AEF-2084-430E-9259-C76E066B0AF8</title>
    <desc>Created with sketchtool.</desc>
    <defs></defs>
    <g id="Symbols" stroke="none" stroke-width="1" fill="none" fill-rule="evenodd">
        <g id="ic02" fill="#B3B3B3">
            <g id="Group-6" transform="translate(0.500000, 0.000000)">
                <path d="M21,0 C9.42061379,0 0,9.42061379 0,21 C0,32.5793862 9.42061379,42 21,42 C32.5793862,42 42,32.5793862 42,21 C42,9.42061379 32.5795281,0 21,0 L21,0 Z M21,39.729699 C15.855498,39.729699 11.1890363,37.6444276 7.80075406,34.275301 C6.4476547,32.9298639 5.29902431,31.3792484 4.40466763,29.6751037 C3.04248706,27.0800078 2.27030095,24.1286166 2.27030095,21 C2.27030095,10.672401 10.672401,2.27030095 21,2.27030095 C25.8986,2.27030095 30.3631468,4.16146164 33.7041784,7.25105745 C35.4364181,8.85275477 36.8668496,10.7762672 37.8982757,12.9262422 C39.0717375,15.3723496 39.729699,18.1107583 39.729699,21 C39.729699,31.327599 31.327599,39.729699 21,39.729699 L21,39.729699 Z" id="Shape-Copy"></path>
                <circle id="Oval-Copy" cx="14.5" cy="16.5" r="2.5"></circle>
                <circle id="Oval-Copy-2" cx="28.5" cy="16.5" r="2.5"></circle>
                <path d="M19.3856564,28.435714 C20.5585957,28.2846498 21.7628736,28.3205779 22.9492236,28.5644445 C25.4272326,29.0736792 27.653121,30.4426895 29.2169459,32.4192858 L31,31.0570726 C29.1081078,28.6655701 26.4129872,27.0087194 23.4115387,26.3918394 C21.7514393,26.05087 20.0618364,26.0436566 18.4366047,26.3367683 C18.0461425,25.705739 17.5498067,25.0271293 16.9405389,24.2942808 C15.7526361,22.8654829 14.5799791,21.7696088 14.5308537,21.7236931 L13.753882,21 L12.9770515,21.7235544 C12.9276438,21.7696088 11.7549868,22.8653442 10.567084,24.2942808 C8.83979009,26.371864 8,28.0242757 8,29.3458444 C8,32.4635369 10.5812005,35 13.753882,35 C16.9264224,35 19.5074817,32.4635369 19.5074817,29.3458444 C19.5074817,29.0586976 19.4652734,28.7550434 19.3856564,28.435714 L19.3856564,28.435714 Z M13.753882,32.7803694 C11.8266986,32.7803694 10.2586387,31.2396259 10.2586387,29.3457057 C10.2586387,28.1426024 12.1080403,25.7842535 13.7543055,24.0956363 C15.4001473,25.7825889 17.2488431,28.1396893 17.2488431,29.3457057 C17.2488431,31.2396259 15.6809243,32.7803694 13.753882,32.7803694 L13.753882,32.7803694 Z" id="Shape-Copy-3"></path>
            </g>
        </g>
    </g>
</svg>