<svg xmlns="http://www.w3.org/2000/svg" width="18" height="17" viewBox="0 0 18 17">
    <path fill="none" fill-rule="evenodd" stroke="#484556" stroke-width="1.5" d="M9 15.222l-.565-.45c-3.373-2.68-5.41-4.298-6.568-6.408-.854-1.55-1.082-3.078-.662-4.42.352-1.12 1.144-2.025 2.234-2.542A4.18 4.18 0 0 1 5.251 1C6.78 1 8.219 1.786 9 3.003 9.78 1.786 11.221 1 12.748 1c.642 0 1.251.135 1.811.4 1.09.52 1.884 1.423 2.236 2.545.42 1.34.19 2.87-.663 4.419-1.16 2.111-3.198 3.73-6.575 6.414L9 15.222z"/>
</svg>
