<?xml version="1.0" encoding="utf-8"?>
<!-- Generator: Adobe Illustrator 21.1.0, SVG Export Plug-In . SVG Version: 6.00 Build 0)  -->
<svg version="1.1" id="Layer_2" xmlns="http://www.w3.org/2000/svg" xmlns:xlink="http://www.w3.org/1999/xlink" x="0px" y="0px"
	 viewBox="0 0 18 17" style="enable-background:new 0 0 18 17;" xml:space="preserve">
<style type="text/css">
	.st0{fill:#B3B3B3;}
</style>
<g id="Path-3-Copy">
	<path id="path-1_1_" class="st0" d="M3.7,7.3H4c0.5,0,0.8,0.4,0.8,0.8v6.7h8.3V8.2c0-0.5,0.4-0.8,0.8-0.8h0.3L9,2.6L3.7,7.3z
		 M3.2,9H1.5C0.7,9,0.4,8.1,0.9,7.5l7.5-6.7c0.3-0.3,0.8-0.3,1.1,0l7.5,6.7C17.6,8.1,17.3,9,16.5,9h-1.7v6.7c0,0.5-0.4,0.8-0.8,0.8
		H4c-0.5,0-0.8-0.4-0.8-0.8V9z"/>
</g>
</svg>
