<?xml version="1.0" encoding="UTF-8"?>
<svg width="18px" height="17px" viewBox="0 0 18 17" version="1.1" xmlns="http://www.w3.org/2000/svg" xmlns:xlink="http://www.w3.org/1999/xlink">
    <!-- Generator: sketchtool 50.2 (55047) - http://www.bohemiancoding.com/sketch -->
    <title>6AC7469F-1EA6-490A-922F-6507123D712F</title>
    <desc>Created with sketchtool.</desc>
    <defs></defs>
    <g id="Page-2" stroke="none" stroke-width="1" fill="none" fill-rule="evenodd">
        <g id="04홈_로그인후_1기본" transform="translate(-14.000000, -547.000000)" fill="#F8063F" stroke="#F8063F" stroke-width="1.5">
            <path d="M23.0000953,562.222222 L22.434761,561.772556 C19.0623106,559.091181 17.0258626,557.474483 15.8667495,555.363502 C15.0134147,553.814166 14.7849698,552.285826 15.2045261,550.944701 C15.5565267,549.82316 16.349417,548.919454 17.4391967,548.40155 C18.0000866,548.134725 18.6089765,548 19.2507554,548 C20.779647,548 22.2187606,548.785603 23.0000953,550.003376 C23.78143,548.785603 25.2223214,548 26.7494352,548 C27.3912141,548 28.000104,548.134725 28.560105,548.400675 C29.6507736,548.919454 30.4436638,549.82316 30.7956644,550.944701 C31.2152207,552.285826 30.985887,553.814166 30.1334411,555.363502 C28.973439,557.475358 26.9352133,559.094681 23.5583185,561.777805 L23.0000953,562.222222 Z" id="btn_like_suggestion"></path>
        </g>
    </g>
</svg>